# xmcd
#
# Track frame offsets: 
#        150
#        15797
#        33467
#        51172
#        67915
#        87330
#        100690
#        120882
#        136915
#        157395
#        175430
#        192900
#        206165
#
# Disc length: 3007 seconds
#
# Revision: 7
# Processed by: cddbd v1.5.2PL0 Copyright (c) Steve Scherf et al.
# Submitted via: ExactAudioCopyFreeDBPlugin 1.0
#
DISCID=a90bbd0d
DTITLE=מירי מסיקה - מירי מסיקה
DYEAR=2005
DGENRE=Other
TTITLE0=נובמבר
TTITLE1=אתה אף פעם
TTITLE2=טיפה טיפה
TTITLE3=מפלס מצב הרוח
TTITLE4=בקרקס הזה
TTITLE5=באה אליכם
TTITLE6=אף אחת
TTITLE7=טיול לילי
TTITLE8=שיר תקווה
TTITLE9=לשם
TTITLE10=תן לי סימן
TTITLE11=שני כוכבים
TTITLE12=הצל ואני
EXTD=YEAR: 2005
EXTT0=
EXTT1=
EXTT2=
EXTT3=
EXTT4=
EXTT5=
EXTT6=
EXTT7=
EXTT8=
EXTT9=
EXTT10=
EXTT11=
EXTT12=
PLAYORDER=
